<?xml version="1.0" encoding="utf-8"?>
<!-- Generator: Adobe Illustrator 22.0.1, SVG Export Plug-In . SVG Version: 6.00 Build 0)  -->
<svg version="1.1" id="Layer_1" xmlns="http://www.w3.org/2000/svg" xmlns:xlink="http://www.w3.org/1999/xlink" x="0px" y="0px"
	 viewBox="0 0 207 172" style="enable-background:new 0 0 207 172;" xml:space="preserve">
<style type="text/css">
	.st0{fill:#FFFFFF;}
</style>
<path class="st0" d="M156.9,57.7c-4.2-10.4-10.7-19-20.9-24.2c-20.1-10.3-49.6-4.8-62.6,21.9c-2.4,4.9-4,10-4.9,15.8
	c-0.7-1.2-1.1-2-1.5-2.7c-7.8-13-18.7-21.3-34.4-22.1c-3.1-0.2-3.1-0.2-3.1,2.7c0,0.9,0.1,1.8,0,2.6c-0.2,1.4,0.4,1.7,1.7,1.6
	c7.4-0.2,14,2,19.8,6.6C63,69.5,68.8,82.2,69.2,97.3c0.4,16.3,0.1,32.5,0.1,48.8c0,1.4,0.3,2,1.8,1.9c1.2-0.1,2.4-0.1,3.5,0
	c1.6,0.2,1.8-0.5,1.8-1.9c-0.1-11,0-21.9,0-32.9c0-0.6,0-1.2,0-2.3c0.5,0.7,0.7,1,0.9,1.2c9.9,13.7,23.5,20.4,40.1,20.4
	c16,0,28.9-7,38.8-19.5c2.6-3.2,2.5-3.3-0.8-5.6c-0.5-0.4-1.1-0.7-1.5-1.1c-0.8-0.8-1.3-0.6-1.9,0.3c-2.2,3.2-4.8,5.9-7.6,8.4
	c-17.4,15.3-43,13.8-58.1-3.4c-6.5-7.5-9.7-16.4-10.8-26.1c-0.2-1.8,0-2.3,1.9-2.3c27.4,0.1,54.7,0,82.1,0.1c1.3,0,1.8-0.2,1.8-1.7
	C161.2,73.4,160,65.3,156.9,57.7z M151.8,76.6c-12.5-0.1-24.9,0-37.4,0c-12.2,0-24.4,0-36.7,0c-2.3,0-2.3,0-2.1-2.3
	c1-9.4,4.3-17.8,10.3-25.2c15.2-18.4,48.6-19.6,62.1,7.1c3,5.8,4.7,12,5.5,18.5C153.7,76.1,153.5,76.6,151.8,76.6z"/>
</svg>
