<?xml version="1.0" encoding="utf-8"?>
<!-- Generator: Adobe Illustrator 19.1.0, SVG Export Plug-In . SVG Version: 6.00 Build 0)  -->
<svg version="1.1" xmlns="http://www.w3.org/2000/svg" xmlns:xlink="http://www.w3.org/1999/xlink" x="0px" y="0px"
	 viewBox="0 0 100 100" style="enable-background:new 0 0 100 100;" xml:space="preserve">
<style type="text/css">
	.st0{display:none;}
	.st1{display:inline;}
	.st2{fill:#DDDBDA;}
	.st3{fill:#4B4A4B;}
	.st4{fill:#A7A9AC;}
	.st5{stroke:#000000;stroke-width:2;stroke-miterlimit:10;}
	.st6{fill:none;}
</style>
<g id="Layer_1" class="st0">
	<g>
		<text transform="matrix(1 0 0 1 -29.0922 51.1084)" class="st1"><tspan x="0" y="0" class="st2" style="font-family:'AvenirNext-Bold'; font-size:6.3062px;">H</tspan><tspan x="5.4" y="0" class="st2" style="font-family:'AvenirNext-Bold'; font-size:6.3062px;">I</tspan><tspan x="8.1" y="0" class="st2" style="font-family:'AvenirNext-Bold'; font-size:6.3062px;">,</tspan><tspan x="10.4" y="0" class="st2" style="font-family:'AvenirNext-Bold'; font-size:6.3062px;"> </tspan><tspan x="12.6" y="0" class="st2" style="font-family:'AvenirNext-Bold'; font-size:6.3062px;">M</tspan><tspan x="19.3" y="0" class="st2" style="font-family:'AvenirNext-Bold'; font-size:6.3062px;">Y</tspan><tspan x="23.3" y="0" class="st2" style="font-family:'AvenirNext-Bold'; font-size:6.3062px;"> </tspan></text>
		<text transform="matrix(1 0 0 1 -36.268 57.1114)" class="st1"><tspan x="0" y="0" class="st2" style="font-family:'AvenirNext-Bold'; font-size:6.3062px;">N</tspan><tspan x="5.6" y="0" class="st2" style="font-family:'AvenirNext-Bold'; font-size:6.3062px;">AM</tspan><tspan x="17.5" y="0" class="st2" style="font-family:'AvenirNext-Bold'; font-size:6.3062px;">E </tspan><tspan x="24.1" y="0" class="st2" style="font-family:'AvenirNext-Bold'; font-size:6.3062px;">I</tspan><tspan x="26.8" y="0" class="st2" style="font-family:'AvenirNext-Bold'; font-size:6.3062px;">S</tspan></text>
		
			<text transform="matrix(1 0 0 1 -5.7465 57.1143)" style="display:inline;fill:#0071BB; font-family:'AvenirNext-Bold'; font-size:5.7056px;"> </text>
		<text transform="matrix(1 0 0 1 -27.0805 63.1201)" class="st1"><tspan x="0" y="0" style="font-family:'AvenirNext-Bold'; font-size:6.3062px;">E</tspan><tspan x="4.5" y="0" style="font-family:'AvenirNext-Bold'; font-size:6.3062px;">R</tspan><tspan x="9.3" y="0" style="font-family:'AvenirNext-Bold'; font-size:6.3062px;">I</tspan><tspan x="11.9" y="0" style="font-family:'AvenirNext-Bold'; font-size:6.3062px;">C</tspan><tspan x="16.8" y="0" style="font-family:'AvenirNext-Bold'; font-size:6.3062px;">A</tspan></text>
		<text transform="matrix(1 0 0 1 -5.7465 63.1201)" class="st1" style="font-family:'AvenirNext-Bold'; font-size:6.3062px;"> </text>
		<text transform="matrix(1 0 0 1 -40.557 69.124)" class="st1"><tspan x="0" y="0" style="font-family:'AvenirNext-Bold'; font-size:6.3062px;">RE</tspan><tspan x="9.3" y="0" style="font-family:'AvenirNext-Bold'; font-size:6.3062px;">MM</tspan><tspan x="22.6" y="0" style="font-family:'AvenirNext-Bold'; font-size:6.3062px;">E</tspan><tspan x="27" y="0" style="font-family:'AvenirNext-Bold'; font-size:6.3062px;">L</tspan><tspan x="31" y="0" style="font-family:'AvenirNext-Bold'; font-size:6.3062px;">E</tspan></text>
	</g>
	<text transform="matrix(1 0 0 1 -31.1161 51.1468)" class="st1"><tspan x="0" y="0" class="st3" style="font-family:'AvenirNext-Bold'; font-size:6.3062px;">HI, MY </tspan><tspan x="-6.8" y="6" class="st3" style="font-family:'AvenirNext-Bold'; font-size:6.3062px;">NAME IS</tspan><tspan x="24.3" y="6" style="font-family:'AvenirNext-Bold'; font-size:6.3062px;"> </tspan><tspan x="2.2" y="12" class="st4" style="font-family:'AvenirNext-Bold'; font-size:6.3062px;">ERICA </tspan><tspan x="-11.5" y="18" class="st4" style="font-family:'AvenirNext-Bold'; font-size:6.3062px;">REMMELE</tspan></text>
	<path class="st1" d="M-29.8,26.6v-0.9h2.1v-0.9h-1.9v-0.9h1.9V23h-2v-0.9h3v4.5H-29.8z"/>
	<path class="st1" d="M-25.4,26.6l-1-1.8h-0.4v1.8h-1.1v-4.5h1.7c0.2,0,0.4,0,0.6,0.1c0.2,0,0.4,0.1,0.5,0.2
		c0.2,0.1,0.3,0.2,0.4,0.4s0.1,0.4,0.1,0.6c0,0.3-0.1,0.6-0.2,0.8c-0.2,0.2-0.4,0.4-0.7,0.4l1.2,1.9H-25.4z M-25.4,23.5
		c0-0.1,0-0.2-0.1-0.3c0-0.1-0.1-0.1-0.2-0.2c-0.1,0-0.1-0.1-0.2-0.1c-0.1,0-0.2,0-0.2,0h-0.6v1h0.5c0.1,0,0.2,0,0.3,0
		s0.2,0,0.3-0.1c0.1,0,0.1-0.1,0.2-0.2C-25.4,23.7-25.4,23.6-25.4,23.5z"/>
	<path class="st1" d="M-22.5,12.7c0,0,0,0.1,0,0.1s0,0.1,0,0.1h-2.3c0,0.1,0,0.2,0.1,0.2c0,0.1,0.1,0.1,0.2,0.2
		c0.1,0.1,0.1,0.1,0.2,0.1c0.1,0,0.2,0,0.3,0c0.2,0,0.3,0,0.4-0.1c0.1-0.1,0.2-0.1,0.3-0.2l0.7,0.5c-0.1,0.2-0.3,0.4-0.6,0.5
		c-0.2,0.1-0.5,0.2-0.8,0.2c-0.2,0-0.5,0-0.7-0.1c-0.2-0.1-0.4-0.2-0.6-0.3s-0.3-0.3-0.4-0.5s-0.1-0.4-0.1-0.7c0-0.3,0-0.5,0.1-0.7
		c0.1-0.2,0.2-0.4,0.4-0.5s0.3-0.3,0.5-0.3C-24.5,11-24.3,11-24,11c0.2,0,0.4,0,0.6,0.1c0.2,0.1,0.4,0.2,0.5,0.3
		c0.1,0.1,0.2,0.3,0.3,0.5C-22.5,12.2-22.5,12.4-22.5,12.7z M-23.4,12.3c0-0.2-0.1-0.3-0.2-0.4s-0.3-0.2-0.5-0.2c-0.1,0-0.2,0-0.3,0
		c-0.1,0-0.2,0.1-0.2,0.1c-0.1,0.1-0.1,0.1-0.2,0.2c0,0.1-0.1,0.2-0.1,0.2H-23.4z"/>
	<path class="st1" d="M-19.2,11.9c0,0-0.1,0-0.1,0c0,0-0.1,0-0.1,0c-0.1,0-0.3,0-0.4,0.1s-0.2,0.1-0.2,0.2c-0.1,0.1-0.1,0.1-0.1,0.2
		s0,0.2,0,0.2v1.6h-1v-3.1h1v0.5h0c0.1-0.2,0.2-0.3,0.3-0.4c0.1-0.1,0.3-0.2,0.5-0.2c0,0,0.1,0,0.1,0c0,0,0.1,0,0.1,0L-19.2,11.9z"
		/>
	<g class="st1">
		<path d="M-8.7,23.4L-8.7,23.4c0-1,0.7-1.7,1.6-1.7c1.1,0,1.6,0.8,1.6,1.8c0,0.1,0,0.1,0,0.2h-2.4c0.1,0.5,0.5,0.8,1,0.8
			c0.4,0,0.6-0.1,0.9-0.4l0.4,0.4C-6,24.9-6.4,25.1-7,25.1C-8,25.1-8.7,24.4-8.7,23.4z M-6.2,23.2c0-0.5-0.3-0.9-0.8-0.9
			c-0.5,0-0.8,0.4-0.9,0.9H-6.2z"/>
		<path d="M-8.6,22.9L-8.6,22.9c-0.2-0.5-0.6-0.8-1.2-0.8v0.8h0c0.7,0,1.1,0.4,1.1,1.3v1.3h0.8v-1.1l-0.6-0.9
			C-8.5,23.4-8.5,23.2-8.6,22.9z"/>
	</g>
</g>
<g id="Layer_2">
	<path class="st5" d="M89.4,46.3v-0.5c0-15.4-8.9-32.6-28.4-32.6c-11.8,0-21.3,6.6-26.1,16.7c-1.1,2.3-2,4.8-2.6,7.5
		c-0.4,2-0.7,4.1-0.8,6.2C28.1,34,19.7,24.5,7,24.6v2.5h0.6c14.1,0,23,14,24.5,25.5c0,0,0,0.1,0,0.1c0.1,1.1,0.3,2.1,0.3,3.1v31.9
		H35V61.1c5.1,10.6,15.4,16.8,27.3,16.8c10.9,0,19.7-5.8,25-13.4L85.2,63c-4.9,6.9-13.3,12.5-22.8,12.5C49,75.4,37.7,66.5,35,52.2
		c-0.4-1.9-0.6-3.8-0.7-5.9H35H89.4z M34.3,44c0.1-2,0.3-3.9,0.7-5.7c2.6-13.2,12.5-22.5,26-22.5c16.3,0,25.2,14.2,25.7,28.2H35
		H34.3z"/>
	<rect class="st6" width="100" height="100"/>
</g>
</svg>
