<?xml version="1.0" encoding="utf-8"?>
<!-- Generator: Adobe Illustrator 19.1.0, SVG Export Plug-In . SVG Version: 6.00 Build 0)  -->
<svg version="1.1" id="Layer_1" xmlns="http://www.w3.org/2000/svg" xmlns:xlink="http://www.w3.org/1999/xlink" x="0px" y="0px"
	 viewBox="-1317 167 100 100" style="enable-background:new -1317 167 100 100;" xml:space="preserve">
<style type="text/css">
	.st0{display:none;}
	.st1{display:inline;}
	.st2{enable-background:new    ;}
	.st3{fill:#DDDBDA;}
	.st4{fill:#4B4A4B;}
	.st5{fill:#A7A9AC;}
	.st6{fill:#F26B82;}
</style>
<g id="Layer_1_1_" class="st0">
	<g class="st1">
		<text transform="matrix(1 0 0 1 -1346.0922 218.1084)" class="st3" style="font-family:'AvenirNext-Bold'; font-size:6.3062px;">H</text>
		<text transform="matrix(1 0 0 1 -1340.6921 218.1084)" class="st3" style="font-family:'AvenirNext-Bold'; font-size:6.3062px;">I</text>
		<text transform="matrix(1 0 0 1 -1337.9922 218.1084)" class="st3" style="font-family:'AvenirNext-Bold'; font-size:6.3062px;">,</text>
		<text transform="matrix(1 0 0 1 -1335.6921 218.1084)" class="st3" style="font-family:'AvenirNext-Bold'; font-size:6.3062px;"> </text>
		<text transform="matrix(1 0 0 1 -1333.4922 218.1084)" class="st3" style="font-family:'AvenirNext-Bold'; font-size:6.3062px;">M</text>
		<text transform="matrix(1 0 0 1 -1326.7922 218.1084)" class="st3" style="font-family:'AvenirNext-Bold'; font-size:6.3062px;">Y</text>
		<text transform="matrix(1 0 0 1 -1322.7922 218.1084)" class="st3" style="font-family:'AvenirNext-Bold'; font-size:6.3062px;"> </text>
		<text transform="matrix(1 0 0 1 -1353.2679 224.1114)" class="st3" style="font-family:'AvenirNext-Bold'; font-size:6.3062px;">N</text>
		<text transform="matrix(1 0 0 1 -1347.668 224.1114)" class="st3" style="font-family:'AvenirNext-Bold'; font-size:6.3062px;">AM</text>
		<text transform="matrix(1 0 0 1 -1335.7679 224.1114)" class="st3" style="font-family:'AvenirNext-Bold'; font-size:6.3062px;">E </text>
		<text transform="matrix(1 0 0 1 -1329.168 224.1114)" class="st3" style="font-family:'AvenirNext-Bold'; font-size:6.3062px;">I</text>
		<text transform="matrix(1 0 0 1 -1326.468 224.1114)" class="st3" style="font-family:'AvenirNext-Bold'; font-size:6.3062px;">S</text>
		
			<text transform="matrix(1 0 0 1 -1322.7465 224.1143)" style="fill:#0071BB; font-family:'AvenirNext-Bold'; font-size:5.7056px;"> </text>
		<text transform="matrix(1 0 0 1 -1344.0804 230.1201)" style="font-family:'AvenirNext-Bold'; font-size:6.3062px;">E</text>
		<text transform="matrix(1 0 0 1 -1339.5804 230.1201)" style="font-family:'AvenirNext-Bold'; font-size:6.3062px;">R</text>
		<text transform="matrix(1 0 0 1 -1334.7805 230.1201)" style="font-family:'AvenirNext-Bold'; font-size:6.3062px;">I</text>
		<text transform="matrix(1 0 0 1 -1332.1805 230.1201)" style="font-family:'AvenirNext-Bold'; font-size:6.3062px;">C</text>
		<text transform="matrix(1 0 0 1 -1327.2805 230.1201)" style="font-family:'AvenirNext-Bold'; font-size:6.3062px;">A</text>
		<text transform="matrix(1 0 0 1 -1322.7465 230.1201)" style="font-family:'AvenirNext-Bold'; font-size:6.3062px;"> </text>
		<text transform="matrix(1 0 0 1 -1357.557 236.124)" style="font-family:'AvenirNext-Bold'; font-size:6.3062px;">RE</text>
		<text transform="matrix(1 0 0 1 -1348.257 236.124)" style="font-family:'AvenirNext-Bold'; font-size:6.3062px;">MM</text>
		<text transform="matrix(1 0 0 1 -1334.957 236.124)" style="font-family:'AvenirNext-Bold'; font-size:6.3062px;">E</text>
		<text transform="matrix(1 0 0 1 -1330.557 236.124)" style="font-family:'AvenirNext-Bold'; font-size:6.3062px;">L</text>
		<text transform="matrix(1 0 0 1 -1326.557 236.124)" style="font-family:'AvenirNext-Bold'; font-size:6.3062px;">E</text>
	</g>
	
		<text transform="matrix(1 0 0 1 -1348.1161 218.1468)" style="display:inline;fill:#4B4A4B; font-family:'AvenirNext-Bold'; font-size:6.3062px;">HI, MY </text>
	
		<text transform="matrix(1 0 0 1 -1354.9161 224.1468)" style="display:inline;fill:#4B4A4B; font-family:'AvenirNext-Bold'; font-size:6.3062px;">NAME IS</text>
	<text transform="matrix(1 0 0 1 -1323.8162 224.1468)" class="st1" style="font-family:'AvenirNext-Bold'; font-size:6.3062px;"> </text>
	
		<text transform="matrix(1 0 0 1 -1345.9161 230.1468)" style="display:inline;fill:#A7A9AC; font-family:'AvenirNext-Bold'; font-size:6.3062px;">ERICA </text>
	
		<text transform="matrix(1 0 0 1 -1359.6161 236.1468)" style="display:inline;fill:#A7A9AC; font-family:'AvenirNext-Bold'; font-size:6.3062px;">REMMELE</text>
	<path class="st1" d="M-1346.8,193.6v-0.9h2.1v-0.9h-1.9v-0.9h1.9V190h-2v-0.9h3v4.5H-1346.8z"/>
	<path class="st1" d="M-1342.4,193.6l-1-1.8h-0.4v1.8h-1.1v-4.5h1.7c0.2,0,0.4,0,0.6,0.1c0.2,0,0.4,0.1,0.5,0.2
		c0.2,0.1,0.3,0.2,0.4,0.4c0.1,0.2,0.1,0.4,0.1,0.6c0,0.3-0.1,0.6-0.2,0.8c-0.2,0.2-0.4,0.4-0.7,0.4l1.2,1.9h-1.1V193.6z
		 M-1342.4,190.5c0-0.1,0-0.2-0.1-0.3c0-0.1-0.1-0.1-0.2-0.2c-0.1,0-0.1-0.1-0.2-0.1s-0.2,0-0.2,0h-0.6v1h0.5c0.1,0,0.2,0,0.3,0
		s0.2,0,0.3-0.1c0.1,0,0.1-0.1,0.2-0.2C-1342.4,190.7-1342.4,190.6-1342.4,190.5z"/>
	<path class="st1" d="M-1339.5,179.7v0.1v0.1h-2.3c0,0.1,0,0.2,0.1,0.2c0,0.1,0.1,0.1,0.2,0.2c0.1,0.1,0.1,0.1,0.2,0.1
		c0.1,0,0.2,0,0.3,0c0.2,0,0.3,0,0.4-0.1c0.1-0.1,0.2-0.1,0.3-0.2l0.7,0.5c-0.1,0.2-0.3,0.4-0.6,0.5c-0.2,0.1-0.5,0.2-0.8,0.2
		c-0.2,0-0.5,0-0.7-0.1c-0.2-0.1-0.4-0.2-0.6-0.3c-0.2-0.1-0.3-0.3-0.4-0.5c-0.1-0.2-0.1-0.4-0.1-0.7s0-0.5,0.1-0.7
		c0.1-0.2,0.2-0.4,0.4-0.5c0.2-0.1,0.3-0.3,0.5-0.3c0.3-0.2,0.5-0.2,0.8-0.2c0.2,0,0.4,0,0.6,0.1c0.2,0.1,0.4,0.2,0.5,0.3
		c0.1,0.1,0.2,0.3,0.3,0.5C-1339.5,179.2-1339.5,179.4-1339.5,179.7z M-1340.4,179.3c0-0.2-0.1-0.3-0.2-0.4
		c-0.1-0.1-0.3-0.2-0.5-0.2c-0.1,0-0.2,0-0.3,0s-0.2,0.1-0.2,0.1c-0.1,0.1-0.1,0.1-0.2,0.2c0,0.1-0.1,0.2-0.1,0.2h1.5V179.3z"/>
	<path class="st1" d="M-1336.2,178.9h-0.1h-0.1c-0.1,0-0.3,0-0.4,0.1c-0.1,0.1-0.2,0.1-0.2,0.2c-0.1,0.1-0.1,0.1-0.1,0.2
		c0,0.1,0,0.2,0,0.2v1.6h-1v-3.1h1v0.5l0,0c0.1-0.2,0.2-0.3,0.3-0.4c0.1-0.1,0.3-0.2,0.5-0.2h0.1h0.1L-1336.2,178.9z"/>
	<g class="st1">
		<path d="M-1325.7,190.4L-1325.7,190.4c0-1,0.7-1.7,1.6-1.7c1.1,0,1.6,0.8,1.6,1.8c0,0.1,0,0.1,0,0.2h-2.4c0.1,0.5,0.5,0.8,1,0.8
			c0.4,0,0.6-0.1,0.9-0.4l0.4,0.4c-0.4,0.4-0.8,0.6-1.4,0.6C-1325,192.1-1325.7,191.4-1325.7,190.4z M-1323.2,190.2
			c0-0.5-0.3-0.9-0.8-0.9s-0.8,0.4-0.9,0.9H-1323.2z"/>
		<path d="M-1325.6,189.9L-1325.6,189.9c-0.2-0.5-0.6-0.8-1.2-0.8v0.8l0,0c0.7,0,1.1,0.4,1.1,1.3v1.3h0.8v-1.1l-0.6-0.9
			C-1325.5,190.4-1325.5,190.2-1325.6,189.9z"/>
	</g>
</g>
<rect x="-1317" y="167" class="st0" width="100" height="100"/>
<path class="st6" d="M-1226.6,213.3v-0.5c0-15.4-8.9-32.6-28.4-32.6c-11.8,0-21.3,6.6-26.1,16.7c-1.1,2.3-2,4.8-2.6,7.5
	c-0.4,2-0.7,4.1-0.8,6.2c-3.4-9.6-11.8-19.1-24.5-19v2.5h0.6c14.1,0,23,14,24.5,25.5v0.1c0.1,1.1,0.3,2.1,0.3,3.1v31.9h2.6v-26.6
	c5.1,10.6,15.4,16.8,27.3,16.8c10.9,0,19.7-5.8,25-13.4l-2.1-1.5c-4.9,6.9-13.3,12.5-22.8,12.5c-13.4-0.1-24.7-9-27.4-23.3
	c-0.4-1.9-0.6-3.8-0.7-5.9h0.7H-1226.6z M-1281.7,211c0.1-2,0.3-3.9,0.7-5.7c2.6-13.2,12.5-22.5,26-22.5c16.3,0,25.2,14.2,25.7,28.2
	h-51.7H-1281.7z"/>
</svg>
